# xmcd
# 
# Track frame offsets:
#	150
#	11912
#	21760
#	33412
#	46082
#	57982
#	67985
#	81862
#	94270
#	104087
#	114967
#	129687
#
# Disc length: 1854 seconds
#
# Revision: 1
# Processed by: cddbd v1.4PL0 Copyright (c) Steve Scherf et al.
# Submitted via: Audio-CD-Archiv 2.10.446
#
DISCID=9d073c0c
DTITLE=Willie Nelson - Heartaches
DYEAR=1900
DGENRE=country
TTITLE0=Touch Me
TTITLE1=Half A Man
TTITLE2=I Hope So
TTITLE3=Any Old Arms Won't Do
TTITLE4=End Of Understanding
TTITLE5=Healing Hands Of Time
TTITLE6=Last Letter
TTITLE7=Shelter Of Your Arms
TTITLE8=Ashamed
TTITLE9=Suffer In Silence
TTITLE10=Face Of A Fighter
TTITLE11=Building Heartaches
EXTD=
EXTT0=
EXTT1=
EXTT2=
EXTT3=
EXTT4=
EXTT5=
EXTT6=
EXTT7=
EXTT8=
EXTT9=
EXTT10=
EXTT11=
PLAYORDER=
